<?xml version="1.0" encoding="utf-8"?>
<!-- Generator: Adobe Illustrator 16.0.4, SVG Export Plug-In . SVG Version: 6.00 Build 0)  -->
<!DOCTYPE svg PUBLIC "-//W3C//DTD SVG 1.1//EN" "http://www.w3.org/Graphics/SVG/1.1/DTD/svg11.dtd">
<svg version="1.1" id="图层_1" xmlns="http://www.w3.org/2000/svg" xmlns:xlink="http://www.w3.org/1999/xlink" x="0px" y="0px"
	 width="399.144px" height="72.645px" viewBox="0 0 399.144 72.645" enable-background="new 0 0 399.144 72.645"
	 xml:space="preserve">
<g>
	<polygon fill="#00AA71" points="60.865,42.147 72.676,48.965 60.865,55.785 	"/>
	<polygon fill="#00AA71" points="61.799,40.54 73.602,33.723 73.602,47.348 	"/>
	<polygon fill="#00AA71" points="60.865,25.289 72.676,32.104 60.865,38.928 	"/>
	<polygon fill="#00AA71" points="18,15.248 29.801,8.429 29.801,22.063 	"/>
	<polygon fill="#00AA71" points="17.062,16.858 28.868,23.679 17.062,30.49 	"/>
	<polygon fill="#00AA71" points="17.062,33.72 28.872,40.54 17.062,47.357 	"/>
	<polygon fill="#00AA71" points="60.865,8.425 72.678,15.248 60.865,22.068 	"/>
	<polygon fill="#00AA71" points="61.799,23.679 73.602,16.866 73.602,30.49 	"/>
	<polygon fill="#00AA71" points="47.197,15.248 59.006,8.429 59.006,22.061 	"/>
	<polygon fill="#00AA71" points="47.197,48.96 59.006,42.147 59.006,55.778 	"/>
	<polygon fill="#00AA71" points="32.596,6.816 44.4,0 44.4,13.632 	"/>
	<polygon fill="#00AA71" points="46.26,-0.002 58.073,6.816 46.26,13.637 	"/>
	<polygon fill="#00AA71" points="46.26,50.58 58.073,57.396 46.26,64.216 	"/>
	<polygon fill="#00AA71" points="47.197,65.83 59.006,59.01 59.006,72.644 	"/>
	<polygon fill="#00AA71" points="31.658,42.147 43.473,48.965 31.658,55.785 	"/>
	<polygon fill="#00AA71" points="31.658,8.42 43.473,15.244 31.658,22.061 	"/>
	<polygon fill="#00AA71" points="17.995,32.104 29.801,25.296 29.801,38.92 	"/>
	<polygon fill="#00AA71" points="18,48.965 29.801,42.151 29.801,55.785 	"/>
	<polygon fill="#00AA71" points="32.596,57.399 44.4,50.58 44.4,64.216 	"/>
	<g>
		<path fill="#FFFFFF" d="M135.348,41.49c0,2.451-3.095,5.441-5.816,6.884c2.35,1.181,3.627,1.872,4.751,2.618
			c0.853,0.529,1.12,1.016,0.8,1.919c-0.216,0.695-1.282,2.245-2.081,2.245c-0.642,0-1.016-0.217-1.978-0.907
			c-1.6-1.013-5.016-3.149-8.913-4.754c-3.419-1.387-7.688-5.07-7.688-8.005V22.7c0-3.688,6.831-8.653,10.41-8.653
			c3.683,0,10.515,4.968,10.515,8.653V41.49z M119.706,40.794c0,1.869,3.471,4.431,5.128,4.431c1.76,0,5.231-2.562,5.231-4.431
			V23.389c0-1.868-3.417-4.428-5.231-4.428c-1.657,0-5.128,2.56-5.128,4.428V40.794z"/>
		<path fill="#FFFFFF" d="M146.769,48.482c0,0.643-0.479,1.179-1.176,1.179h-2.933c-0.645,0-1.175-0.536-1.175-1.179V15.704
			c0-0.642,0.53-1.173,1.175-1.173h2.933c0.696,0,1.176,0.531,1.176,1.173V48.482z"/>
		<path fill="#FFFFFF" d="M158.62,26.06v22.423c0,0.695-0.533,1.179-1.279,1.179h-2.672c-0.641,0-1.226-0.481-1.226-1.179V15.704
			c0-0.642,0.585-1.173,1.226-1.173h2.242c0.854,0,1.229,0.426,1.655,1.173l10.784,22.635V15.704c0-0.696,0.479-1.173,1.177-1.173
			h2.722c0.695,0,1.228,0.477,1.228,1.173v32.777c0,0.694-0.531,1.179-1.228,1.179h-2.188c-0.805,0-1.339-0.593-1.659-1.179
			L158.62,26.06z"/>
		<path fill="#FFFFFF" d="M192.036,30.703c0-0.642,0.588-1.174,1.227-1.174h6.516c0.695,0,1.707,1.016,1.707,1.654V41.49
			c0,3.574-6.725,8.646-10.41,8.646c-3.576,0-10.465-5.072-10.465-8.646V22.7c0-3.688,6.941-8.653,10.465-8.653
			c2.297,0,5.713,1.763,8.221,3.312c0.644,0.375,0.856,1.121,0.533,1.759l-0.904,1.763c-0.32,0.59-1.176,0.805-1.869,0.431
			c-1.922-1.018-4.538-2.35-5.979-2.35c-1.601,0-5.18,2.56-5.18,4.428v17.404c0,1.815,3.523,4.431,5.18,4.431
			c1.602,0,5.127-2.668,5.127-4.431v-6.618h-2.939c-0.639,0-1.227-0.536-1.227-1.175v-2.298H192.036z"/>
		<path fill="#FFFFFF" d="M211.625,40.794c0,1.927,3.685,4.48,5.127,4.48c1.494,0,3.683-1.171,5.604-2.237
			c0.748-0.374,1.654-0.159,1.979,0.536l0.853,1.761c0.319,0.693,0.106,1.441-0.479,1.76c-2.457,1.495-5.444,3.045-7.953,3.045
			c-3.474,0-10.41-4.748-10.41-8.646V22.7c0-3.791,6.886-8.653,10.464-8.653c2.239,0,5.337,1.556,7.847,2.992
			c0.643,0.32,0.854,1.173,0.48,1.813l-0.801,1.708c-0.319,0.643-1.176,0.854-1.869,0.479c-1.922-0.96-4.164-2.133-5.657-2.133
			c-1.496,0-5.181,2.561-5.181,4.479v17.406h-0.002V40.794z"/>
		<path fill="#FFFFFF" d="M229.667,47.468V15.704c0-0.642,0.586-1.173,1.229-1.173h2.775c0.689,0,1.277,0.531,1.277,1.173v29.31
			h10.039c0.692,0,1.229,0.532,1.229,1.172v2.298c0,0.643-0.535,1.179-1.229,1.179h-13.242
			C231.001,49.66,229.667,48.162,229.667,47.468z"/>
		<path fill="#FFFFFF" d="M269.384,41.49c0,3.682-6.834,8.646-10.518,8.646c-3.578,0-10.41-4.914-10.41-8.646V22.7
			c0-3.688,6.832-8.653,10.41-8.653c3.684,0,10.518,4.968,10.518,8.653V41.49z M253.744,40.794c0,1.869,3.467,4.431,5.125,4.431
			c1.762,0,5.23-2.562,5.23-4.431V23.389c0-1.868-3.416-4.428-5.23-4.428c-1.658,0-5.125,2.56-5.125,4.428V40.794z"/>
		<path fill="#FFFFFF" d="M285.664,50.138c-3.524,0-10.408-4.748-10.408-8.599V15.704c0-0.642,0.584-1.173,1.228-1.173h2.829
			c0.691,0,1.225,0.531,1.225,1.173V40.85c0,1.871,3.476,4.427,5.129,4.427c1.656,0,5.123-2.556,5.123-4.427V15.704
			c0-0.642,0.482-1.173,1.127-1.173h2.932c0.646,0,1.229,0.531,1.229,1.173V41.54C296.076,45.275,289.188,50.138,285.664,50.138z"/>
		<path fill="#FFFFFF" d="M322.976,41.384c0,3.202-5.98,8.276-9.609,8.276h-8.328c-1.496,0-2.56-0.912-2.56-1.979V16.612
			c0-1.122,1.172-2.08,2.56-2.08h8.225c3.732,0,9.715,4.696,9.715,8.271L322.976,41.384L322.976,41.384z M317.689,23.551
			c0-1.763-3.201-4.433-5.123-4.433h-4.804v25.946h4.911c1.865,0,5.016-2.718,5.016-4.428V23.551L317.689,23.551z"/>
		<g>
			<g>
				<path fill="#FFFFFF" d="M363.238,19.646h23.863c0.338,0,0.613-0.274,0.613-0.613v-2.687c0-0.336-0.275-0.614-0.613-0.614
					h-23.863c-0.34,0-0.611,0.278-0.611,0.614v2.687C362.625,19.371,362.898,19.646,363.238,19.646z"/>
				<path fill="#FFFFFF" d="M387.529,26.569H362.8c-0.338,0-0.613,0.279-0.613,0.617v2.688c0,0.333,0.275,0.612,0.613,0.612h3.428
					l-2.74,15.271c-0.154,0.846,0.377,1.663,1.211,1.862l10.088,2.472c0.125,0.031,0.254,0.049,0.387,0.049
					c0.129,0,0.258-0.018,0.385-0.049l10.084-2.472c0.727-0.177,1.234-0.83,1.234-1.576v-1.004v-4.576v-4
					c0-0.338-0.273-0.612-0.611-0.612h-2.912c-0.336,0-0.611,0.274-0.611,0.612v8.077l-6.936,1.701
					c-0.211,0.049-0.422,0.075-0.633,0.075c-0.213,0-0.428-0.026-0.635-0.075l-6.646-1.628l2.547-14.127h17.09
					c0.34,0,0.613-0.279,0.613-0.612v-2.688C388.144,26.849,387.869,26.569,387.529,26.569z"/>
			</g>
			<g>
				<path fill="#FFFFFF" d="M357.234,26.901h-11.02v-2.17h9.176c0.342,0,0.613-0.273,0.613-0.609V22.1
					c0-0.341-0.271-0.617-0.613-0.617h-9.176v-2.167h9.725c0.338,0,0.615-0.275,0.615-0.611V16.68c0-0.338-0.277-0.611-0.615-0.611
					h-9.725v-0.954c0-0.344-0.271-0.618-0.609-0.618h-2.91c-0.34,0-0.611,0.274-0.611,0.618v0.954h-9.727
					c-0.342,0-0.611,0.273-0.611,0.611v2.023c0,0.336,0.27,0.611,0.611,0.611h9.727v2.167h-9.178c-0.338,0-0.613,0.276-0.613,0.617
					v2.021c0,0.336,0.275,0.609,0.613,0.609h9.178v2.17h-11.016c-0.344,0-0.615,0.278-0.615,0.618v2.018
					c0,0.339,0.271,0.612,0.615,0.612h26.166c0.334,0,0.613-0.273,0.613-0.612V27.52C357.847,27.18,357.568,26.901,357.234,26.901z"
					/>
				<path fill="#FFFFFF" d="M354.31,32.449l-10.039-0.733c-0.039-0.006-0.08-0.006-0.119-0.006c-0.062,0-0.062,0-10.164,0.739
					c-0.85,0.064-1.506,0.769-1.506,1.624v1.511V48.41v0.634c0,0.333,0.273,0.616,0.609,0.616h2.727
					c0.338,0,0.613-0.283,0.613-0.616v-3.311h15.438v3.311c0,0.333,0.273,0.616,0.611,0.616h2.725c0.336,0,0.613-0.283,0.613-0.616
					v-1.202V35.584v-1.511C355.816,33.218,355.162,32.515,354.31,32.449z M351.867,35.528v0.057v0.67v1.003h-15.436v-1.003v-0.67
					v-0.057c2.688-0.196,6.961-0.513,7.721-0.562L351.867,35.528z M336.431,42.485v-1.98h15.438v1.98H336.431z"/>
			</g>
		</g>
	</g>
</g>
</svg>
